<svg width="498" height="70" viewBox="0 0 498 70" fill="none" xmlns="http://www.w3.org/2000/svg">
<path d="M207.88 69.5C227.072 69.5 242.63 53.9419 242.63 34.75C242.63 15.5581 227.072 0 207.88 0C188.688 0 173.13 15.5581 173.13 34.75C173.13 53.9419 188.688 69.5 207.88 69.5Z" fill="#3FB4C3"/>
<path d="M207.88 16.82C213.72 16.82 214.41 16.84 216.72 16.95C218.85 17.05 220.01 17.4 220.78 17.7C221.8 18.1 222.53 18.57 223.3 19.34C224.07 20.11 224.54 20.83 224.94 21.86C225.24 22.63 225.6 23.79 225.69 25.92C225.8 28.23 225.82 28.92 225.82 34.76C225.82 40.6 225.8 41.3 225.69 43.6C225.59 45.73 225.24 46.89 224.94 47.66C224.54 48.68 224.07 49.41 223.3 50.18C222.53 50.95 221.81 51.42 220.78 51.82C220.01 52.12 218.85 52.48 216.72 52.57C214.41 52.68 213.72 52.7 207.88 52.7C202.04 52.7 201.34 52.68 199.04 52.57C196.91 52.47 195.75 52.12 194.98 51.82C193.96 51.42 193.23 50.95 192.46 50.18C191.69 49.41 191.22 48.69 190.82 47.66C190.52 46.89 190.16 45.73 190.07 43.6C189.96 41.29 189.94 40.6 189.94 34.76C189.94 28.92 189.96 28.22 190.07 25.92C190.17 23.79 190.52 22.63 190.82 21.86C191.22 20.84 191.69 20.11 192.46 19.34C193.23 18.57 193.95 18.1 194.98 17.7C195.75 17.4 196.91 17.04 199.04 16.95C201.35 16.84 202.04 16.82 207.88 16.82ZM207.88 12.87C201.94 12.87 201.19 12.9 198.86 13C196.53 13.11 194.94 13.48 193.55 14.02C192.11 14.58 190.89 15.33 189.67 16.54C188.45 17.76 187.71 18.98 187.15 20.42C186.61 21.81 186.24 23.4 186.13 25.73C186.02 28.06 186 28.81 186 34.75C186 40.69 186.03 41.44 186.13 43.77C186.24 46.1 186.61 47.69 187.15 49.08C187.71 50.52 188.46 51.74 189.67 52.96C190.89 54.18 192.11 54.92 193.55 55.48C194.94 56.02 196.53 56.39 198.86 56.5C201.19 56.61 201.94 56.63 207.88 56.63C213.82 56.63 214.57 56.6 216.9 56.5C219.23 56.39 220.82 56.02 222.21 55.48C223.65 54.92 224.87 54.17 226.09 52.96C227.31 51.74 228.05 50.52 228.61 49.08C229.15 47.69 229.52 46.1 229.63 43.77C229.74 41.44 229.76 40.69 229.76 34.75C229.76 28.81 229.73 28.06 229.63 25.73C229.52 23.4 229.15 21.81 228.61 20.42C228.05 18.98 227.3 17.76 226.09 16.54C224.87 15.32 223.65 14.58 222.21 14.02C220.82 13.48 219.23 13.11 216.9 13C214.57 12.9 213.83 12.87 207.88 12.87Z" fill="white"/>
<path d="M207.88 23.52C201.67 23.52 196.64 28.55 196.64 34.76C196.64 40.97 201.67 46 207.88 46C214.09 46 219.12 40.97 219.12 34.76C219.12 28.55 214.09 23.52 207.88 23.52ZM207.88 42.05C203.85 42.05 200.59 38.78 200.59 34.76C200.59 30.74 203.86 27.47 207.88 27.47C211.91 27.47 215.17 30.74 215.17 34.76C215.17 38.78 211.91 42.05 207.88 42.05Z" fill="white"/>
<path d="M219.57 25.6999C221.022 25.6999 222.2 24.5224 222.2 23.0699C222.2 21.6174 221.022 20.4399 219.57 20.4399C218.117 20.4399 216.94 21.6174 216.94 23.0699C216.94 24.5224 218.117 25.6999 219.57 25.6999Z" fill="white"/>
<path d="M289.9 69.5C309.092 69.5 324.65 53.9419 324.65 34.75C324.65 15.5581 309.092 0 289.9 0C270.708 0 255.15 15.5581 255.15 34.75C255.15 53.9419 270.708 69.5 289.9 69.5Z" fill="#3FB4C3"/>
<path fill-rule="evenodd" clip-rule="evenodd" d="M306.62 18.46C302.46 14.29 296.92 12 291.02 12C278.87 12 268.98 21.89 268.97 34.04C268.97 37.92 269.98 41.72 271.91 45.06L268.78 56.48L280.47 53.42C283.69 55.18 287.32 56.1 291.01 56.1H291.02C303.17 56.1 313.06 46.21 313.07 34.06C313.08 28.17 310.78 22.63 306.62 18.46ZM291.03 52.38C287.73 52.38 284.51 51.5 281.7 49.83L281.03 49.43L274.09 51.25L275.94 44.49L275.5 43.8C273.67 40.88 272.7 37.51 272.7 34.05C272.7 23.95 280.92 15.73 291.03 15.73C295.92 15.73 300.53 17.64 303.99 21.1C307.45 24.56 309.35 29.17 309.35 34.06C309.35 44.16 301.13 52.38 291.03 52.38ZM301.08 38.65C300.53 38.37 297.82 37.04 297.32 36.86C296.82 36.68 296.45 36.58 296.08 37.14C295.71 37.69 294.66 38.93 294.34 39.3C294.02 39.67 293.7 39.71 293.15 39.44C292.6 39.16 290.82 38.58 288.72 36.71C287.08 35.25 285.98 33.45 285.66 32.89C285.34 32.33 285.63 32.04 285.9 31.77C286.15 31.52 286.45 31.13 286.73 30.81C287.01 30.49 287.1 30.26 287.28 29.89C287.46 29.52 287.37 29.2 287.23 28.93C287.09 28.65 285.99 25.94 285.53 24.84C285.08 23.77 284.63 23.91 284.29 23.89C283.97 23.87 283.6 23.87 283.23 23.87C282.86 23.87 282.27 24.01 281.76 24.56C281.26 25.11 279.83 26.44 279.83 29.15C279.83 31.86 281.8 34.48 282.08 34.85C282.36 35.22 285.96 40.78 291.49 43.17C292.8 43.74 293.83 44.08 294.63 44.33C295.95 44.75 297.15 44.69 298.1 44.55C299.16 44.39 301.36 43.22 301.82 41.93C302.28 40.64 302.28 39.54 302.14 39.31C302 39.07 301.63 38.93 301.08 38.65Z" fill="white"/>
<path d="M379.62 69.5C398.812 69.5 414.37 53.9419 414.37 34.75C414.37 15.5581 398.812 0 379.62 0C360.428 0 344.87 15.5581 344.87 34.75C344.87 53.9419 360.428 69.5 379.62 69.5Z" fill="#3FB4C3"/>
<path d="M382.31 30.01C382.88 29.37 383.35 28.72 383.94 28.16C385.74 26.46 387.87 25.6 390.36 25.63C391.73 25.64 393.08 25.74 394.4 26.12C397.42 26.99 399.17 29.07 400.01 32.02C400.64 34.23 400.75 36.5 400.76 38.78C400.77 43.58 400.75 48.38 400.76 53.18C400.76 53.63 400.64 53.75 400.19 53.74C397.72 53.72 395.24 53.72 392.77 53.74C392.33 53.74 392.24 53.61 392.24 53.2C392.25 48.63 392.26 44.06 392.24 39.5C392.24 38.36 392.16 37.21 391.84 36.1C391.25 34.05 389.78 33.01 387.63 33.12C384.7 33.27 383.17 34.73 382.8 37.71C382.71 38.42 382.67 39.13 382.67 39.85C382.67 44.29 382.67 48.74 382.68 53.18C382.68 53.62 382.57 53.75 382.12 53.75C379.63 53.73 377.14 53.73 374.65 53.75C374.25 53.75 374.14 53.65 374.14 53.24C374.15 44.44 374.15 35.65 374.14 26.85C374.14 26.41 374.28 26.31 374.69 26.32C377.06 26.34 379.42 26.34 381.79 26.32C382.23 26.32 382.34 26.46 382.33 26.87C382.29 27.91 382.31 28.96 382.31 30.01Z" fill="white"/>
<path d="M368.76 40.0701C368.76 44.4201 368.75 48.7701 368.77 53.1201C368.77 53.6001 368.65 53.7501 368.15 53.7401C365.68 53.7101 363.21 53.7201 360.73 53.7401C360.33 53.7401 360.21 53.6401 360.21 53.2301C360.22 44.4201 360.22 35.6101 360.21 26.8001C360.21 26.4401 360.3 26.3101 360.69 26.3101C363.2 26.3301 365.71 26.3301 368.21 26.3101C368.69 26.3101 368.76 26.4901 368.76 26.9101C368.75 31.2901 368.76 35.6801 368.76 40.0701Z" fill="white"/>
<path d="M369.44 17.58C369.44 20.31 367.22 22.54 364.5 22.54C361.81 22.54 359.57 20.31 359.56 17.62C359.55 14.9 361.79 12.66 364.51 12.66C367.21 12.67 369.44 14.89 369.44 17.58Z" fill="white"/>
<path d="M463.03 69.5C482.222 69.5 497.78 53.9419 497.78 34.75C497.78 15.5581 482.222 0 463.03 0C443.838 0 428.28 15.5581 428.28 34.75C428.28 53.9419 443.838 69.5 463.03 69.5Z" fill="#3FB4C3"/>
<path d="M475 26.56C474.99 27.52 474.94 28.47 474.87 29.42C474.86 29.58 474.85 29.75 474.85 29.91C474.84 30.26 475.05 30.41 475.4 30.38C475.53 30.37 475.66 30.33 475.78 30.29C476.13 30.17 476.47 30.04 476.82 29.91C477.4 29.69 477.98 29.47 478.58 29.33C478.98 29.24 479.39 29.19 479.8 29.28C480.74 29.49 481.22 30.43 480.86 31.32C480.76 31.55 480.62 31.76 480.45 31.94C480.21 32.21 479.93 32.44 479.64 32.64C479.29 32.88 478.94 33.11 478.58 33.34C477.99 33.73 477.4 34.11 476.81 34.5C476.57 34.66 476.33 34.84 476.1 35.01C475.97 35.11 475.85 35.22 475.74 35.34C475.52 35.58 475.42 35.88 475.44 36.21C475.46 36.52 475.52 36.83 475.6 37.14C475.88 38.12 476.31 39.03 476.83 39.9C477.79 41.5 479.02 42.86 480.47 44.03C481.7 45.03 483.03 45.85 484.45 46.54C484.58 46.6 484.7 46.67 484.82 46.74C484.91 46.8 484.99 46.87 485.06 46.96C485.16 47.1 485.17 47.24 485.09 47.39C485.02 47.52 484.92 47.61 484.81 47.7C484.65 47.83 484.47 47.93 484.29 48.03C483.49 48.47 482.63 48.78 481.75 49.02C481.37 49.12 481 49.23 480.62 49.34C480.36 49.42 480.11 49.53 479.87 49.66C479.46 49.87 479.23 50.21 479.15 50.65C479.1 50.89 479.07 51.14 479.03 51.39C478.92 52.01 478.7 52.24 478.09 52.34C477.88 52.38 477.66 52.4 477.44 52.41C476.9 52.44 476.36 52.45 475.81 52.48C474.58 52.55 473.37 52.74 472.2 53.12C471.7 53.28 471.23 53.49 470.78 53.75C470.3 54.03 469.83 54.31 469.35 54.6C468.6 55.05 467.83 55.49 467.01 55.81C466.09 56.17 465.15 56.38 464.17 56.47C463.34 56.54 462.52 56.53 461.7 56.44C460.47 56.3 459.3 55.94 458.2 55.38C457.69 55.12 457.19 54.82 456.7 54.52C456.34 54.3 455.98 54.08 455.61 53.87C454.74 53.35 453.81 53.02 452.83 52.81C451.94 52.62 451.03 52.51 450.12 52.47C449.64 52.45 449.17 52.43 448.69 52.4C448.42 52.38 448.15 52.35 447.89 52.28C447.52 52.18 447.28 51.96 447.21 51.58C447.17 51.37 447.13 51.15 447.1 50.94C447.09 50.9 447.09 50.85 447.08 50.81C447 50.24 446.72 49.83 446.18 49.58C445.85 49.43 445.52 49.31 445.17 49.22C444.58 49.05 443.97 48.91 443.39 48.7C442.88 48.52 442.38 48.3 441.91 48.04C441.77 47.96 441.63 47.88 441.49 47.79C441.4 47.73 441.32 47.66 441.24 47.58C440.96 47.29 440.99 47.03 441.3 46.78C441.46 46.66 441.63 46.58 441.81 46.49C443.05 45.88 444.23 45.17 445.32 44.33C446.88 43.13 448.22 41.72 449.25 40.03C449.8 39.13 450.25 38.18 450.55 37.17C450.64 36.85 450.71 36.52 450.72 36.18C450.73 35.85 450.62 35.56 450.4 35.32C450.27 35.17 450.12 35.05 449.96 34.93C449.51 34.59 449.04 34.28 448.57 33.97C447.97 33.58 447.37 33.19 446.77 32.8C446.47 32.6 446.18 32.39 445.92 32.14C445.73 31.96 445.56 31.76 445.43 31.54C445.15 31.07 445.13 30.58 445.34 30.07C445.49 29.72 445.74 29.48 446.09 29.35C446.48 29.2 446.87 29.19 447.28 29.25C447.75 29.33 448.21 29.47 448.66 29.64C449.12 29.81 449.57 29.98 450.03 30.16C450.24 30.24 450.46 30.32 450.68 30.35C450.73 30.36 450.79 30.37 450.84 30.37C451.1 30.36 451.32 30.28 451.32 29.92C451.32 29.63 451.3 29.33 451.28 29.04C451.17 27.46 451.13 25.87 451.2 24.29C451.24 23.28 451.35 22.28 451.57 21.29C451.88 19.92 452.45 18.67 453.31 17.54C454.88 15.46 456.96 14.15 459.45 13.44C460.81 13.06 462.2 12.93 463.61 12.98C465.1 13.03 466.54 13.3 467.93 13.84C469.25 14.35 470.45 15.06 471.49 16.02C472.8 17.24 473.8 18.66 474.35 20.38C474.6 21.16 474.75 21.95 474.85 22.76C475.01 24.04 475.02 25.3 475 26.56Z" fill="white"/>
<path d="M69.51 34.75C69.51 15.56 53.95 0 34.75 0C15.55 0 0 15.56 0 34.75C0 52.1 12.71 66.48 29.32 69.09V44.8H20.5V34.75H29.32V27.1C29.32 18.39 34.51 13.58 42.45 13.58C46.25 13.58 50.23 14.26 50.23 14.26V22.81H45.85C41.53 22.81 40.19 25.49 40.19 28.24V34.76H49.83L48.28 44.8H40.18V69.09C56.8 66.48 69.51 52.1 69.51 34.75Z" fill="#3FB4C3"/>
<path d="M48.28 44.7999L49.82 34.7499H40.18V28.2299C40.18 25.4799 41.53 22.7999 45.84 22.7999H50.22V14.2499C50.22 14.2499 46.24 13.5699 42.44 13.5699C34.5 13.5699 29.31 18.3799 29.31 27.0899V34.7499H20.5V44.7999H29.32V69.0899C31.09 69.3699 32.9 69.5099 34.75 69.5099C36.6 69.5099 38.41 69.3699 40.18 69.0899V44.7999H48.28Z" fill="white"/>
<path d="M124.47 69.5C143.662 69.5 159.22 53.9419 159.22 34.75C159.22 15.5581 143.662 0 124.47 0C105.278 0 89.72 15.5581 89.72 34.75C89.72 53.9419 105.278 69.5 124.47 69.5Z" fill="#3FB4C3"/>
<path d="M143.95 23.27C143.95 23.07 143.94 23.06 143.73 23.06C143.22 23.06 142.72 23 142.22 22.93C140.4 22.66 134.5 19.56 133.51 14.5C133.49 14.4 133.27 13.15 133.27 12.61C133.27 12.37 133.27 12.37 133.03 12.37C132.98 12.37 132.92 12.37 132.87 12.37C130.56 12.37 128.25 12.37 125.95 12.37C125.49 12.37 125.55 12.31 125.55 12.78C125.55 22.79 125.55 32.8 125.55 42.81C125.55 43.18 125.54 43.56 125.47 43.92C125.12 45.86 124.13 47.37 122.45 48.41C121 49.31 119.42 49.56 117.74 49.23C117.21 49.13 116.72 48.93 116.22 48.73C116.18 48.69 116.14 48.66 116.1 48.62C115.93 48.48 115.75 48.36 115.57 48.24C113.43 46.76 112.42 44.71 112.73 42.14C113.04 39.53 114.54 37.77 117.01 36.85C117.75 36.58 118.52 36.47 119.31 36.51C119.82 36.54 120.32 36.6 120.81 36.74C120.98 36.79 121.07 36.73 121.08 36.55C121.08 36.49 121.08 36.42 121.08 36.36C121.08 34.56 121.01 30.64 121 30.63C121 30.11 121 29.6 121.01 29.08C121.01 28.93 120.94 28.91 120.81 28.89C119.88 28.78 118.95 28.76 118.01 28.83C116.72 28.92 115.46 29.19 114.24 29.63C112.3 30.33 110.59 31.41 109.12 32.85C107.86 34.09 106.86 35.52 106.13 37.14C105.43 38.69 105.03 40.31 104.92 42C104.87 42.73 104.88 43.47 104.95 44.2C105.04 45.22 105.24 46.21 105.55 47.18C106.44 49.97 108.05 52.26 110.34 54.07C110.57 54.25 110.8 54.46 111.08 54.58C111.2 54.68 111.31 54.79 111.43 54.89C111.8 55.17 112.2 55.41 112.61 55.61C115.18 56.88 117.88 57.39 120.73 57.04C124.43 56.59 127.5 54.95 129.93 52.13C132.21 49.47 133.32 46.36 133.34 42.87C133.37 37.89 133.35 32.9 133.35 27.91C133.35 27.79 133.28 27.62 133.41 27.56C133.51 27.51 133.62 27.65 133.71 27.71C135.57 28.93 137.57 29.81 139.73 30.31C140.99 30.6 142.26 30.77 143.56 30.77C143.97 30.77 144.02 30.75 144.02 30.34C144.04 28.58 143.95 23.74 143.95 23.27Z" fill="white"/>
</svg>
