<?xml version="1.0" encoding="utf-8"?>
<!-- Generator: Adobe Illustrator 27.0.0, SVG Export Plug-In . SVG Version: 6.00 Build 0)  -->
<svg version="1.1" id="Layer_1" xmlns="http://www.w3.org/2000/svg" xmlns:xlink="http://www.w3.org/1999/xlink" x="0px" y="0px"
	 viewBox="0 0 1366 768" style="enable-background:new 0 0 1366 768;" xml:space="preserve">
<style type="text/css">
	.st0{fill:#C7F36C;}
</style>
<path class="st0" d="M135.35,56.29c75.7,33.64,104.46,126.24,61.14,196.84l-410.45,668.96c-67.84,110.56-237.06,73.7-252.76-55.06
	L-576.51-33.11c-12.89-105.65,94.36-185,191.63-141.78L135.35,56.29z"/>
<path d="M486.74,735.84h607.49v-34.12H486.74c-76.8,0-139.29-62.43-139.29-139.16c0-76.73,62.49-139.16,139.29-139.16h451.12
	c95.63,0,173.44-77.73,173.44-173.28c0-95.55-77.8-173.28-173.44-173.28H330.38v34.12h607.49c76.8,0,139.29,62.43,139.29,139.16
	c0,76.73-62.49,139.16-139.29,139.16H486.74c-95.63,0-173.44,77.73-173.44,173.28S391.11,735.84,486.74,735.84z"/>
</svg>
