<svg width="2205" height="1712" viewBox="0 0 2205 1712" fill="none" xmlns="http://www.w3.org/2000/svg">
<g clip-path="url(#clip0_114_251)">
<g filter="url(#filter0_f_114_251)">
<path d="M1584.56 1168C1752.76 1168 1889.12 1073.08 1889.12 956C1889.12 838.916 1752.76 744 1584.56 744C1416.36 744 1280 838.916 1280 956C1280 1073.08 1416.36 1168 1584.56 1168Z" fill="#C7F36C"/>
</g>
<g filter="url(#filter1_f_114_251)">
<path d="M781.5 1248C1031.96 1248 1235 1044.74 1235 794C1235 543.263 1031.96 340 781.5 340C531.039 340 328 543.263 328 794C328 1044.74 531.039 1248 781.5 1248Z" fill="#0293E4"/>
</g>
</g>
<defs>
<filter id="filter0_f_114_251" x="676" y="140" width="1817.12" height="1632" filterUnits="userSpaceOnUse" color-interpolation-filters="sRGB">
<feFlood flood-opacity="0" result="BackgroundImageFix"/>
<feBlend mode="normal" in="SourceGraphic" in2="BackgroundImageFix" result="shape"/>
<feGaussianBlur stdDeviation="302" result="effect1_foregroundBlur_114_251"/>
</filter>
<filter id="filter1_f_114_251" x="-236" y="-224" width="2035" height="2036" filterUnits="userSpaceOnUse" color-interpolation-filters="sRGB">
<feFlood flood-opacity="0" result="BackgroundImageFix"/>
<feBlend mode="normal" in="SourceGraphic" in2="BackgroundImageFix" result="shape"/>
<feGaussianBlur stdDeviation="282" result="effect1_foregroundBlur_114_251"/>
</filter>
<clipPath id="clip0_114_251">
<rect width="2205" height="1712" fill="white"/>
</clipPath>
</defs>
</svg>
