<svg width="2205" height="1112" viewBox="0 0 2205 1712" fill="none" xmlns="http://www.w3.org/2000/svg">
<g clip-path="url(#clip0_114_238)">
<g filter="url(#filter0_f_114_238)">
<path d="M856.5 1108C995.952 1108 1109 995.176 1109 856C1109 716.824 995.952 604 856.5 604C717.048 604 604 716.824 604 856C604 995.176 717.048 1108 856.5 1108Z" fill="#C41572"/>
</g>
<g filter="url(#filter1_f_114_238)">
<path d="M1380.5 1117C1524.37 1117 1641 1000.15 1641 856C1641 711.854 1524.37 595 1380.5 595C1236.63 595 1120 711.854 1120 856C1120 1000.15 1236.63 1117 1380.5 1117Z" fill="#9152FA"/>
</g>
</g>
<defs>
<filter id="filter0_f_114_238" x="0" y="0" width="1713" height="1112" filterUnits="userSpaceOnUse" color-interpolation-filters="sRGB">
<feFlood flood-opacity="0" result="BackgroundImageFix"/>
<feBlend mode="normal" in="SourceGraphic" in2="BackgroundImageFix" result="shape"/>
<feGaussianBlur stdDeviation="302" result="effect1_foregroundBlur_114_238"/>
</filter>
<filter id="filter1_f_114_238" x="556" y="31" width="1649" height="1650" filterUnits="userSpaceOnUse" color-interpolation-filters="sRGB">
<feFlood flood-opacity="0" result="BackgroundImageFix"/>
<feBlend mode="normal" in="SourceGraphic" in2="BackgroundImageFix" result="shape"/>
<feGaussianBlur stdDeviation="282" result="effect1_foregroundBlur_114_238"/>
</filter>
<clipPath id="clip0_114_238">
<rect width="2205" height="1712" fill="white"/>
</clipPath>
</defs>
</svg>
