<svg width="2205" height="1712" viewBox="0 0 2205 1712" fill="none" xmlns="http://www.w3.org/2000/svg">
<g clip-path="url(#clip0_114_246)">
<g filter="url(#filter0_f_114_246)">
<path d="M536.5 1393C755.481 1393 933 1269.43 933 1117C933 964.569 755.481 841 536.5 841C317.519 841 140 964.569 140 1117C140 1269.43 317.519 1393 536.5 1393Z" fill="#C7F36C"/>
</g>
<g filter="url(#filter1_f_114_246)">
<path d="M1668.5 1273.3C1898.53 1273.3 2085 1086.47 2085 856C2085 625.532 1898.53 438.701 1668.5 438.701C1438.47 438.701 1252 625.532 1252 856C1252 1086.47 1438.47 1273.3 1668.5 1273.3Z" fill="#0293E4"/>
</g>
</g>
<defs>
<filter id="filter0_f_114_246" x="-464" y="237" width="2001" height="1760" filterUnits="userSpaceOnUse" color-interpolation-filters="sRGB">
<feFlood flood-opacity="0" result="BackgroundImageFix"/>
<feBlend mode="normal" in="SourceGraphic" in2="BackgroundImageFix" result="shape"/>
<feGaussianBlur stdDeviation="302" result="effect1_foregroundBlur_114_246"/>
</filter>
<filter id="filter1_f_114_246" x="688" y="-125.299" width="1961" height="1962.6" filterUnits="userSpaceOnUse" color-interpolation-filters="sRGB">
<feFlood flood-opacity="0" result="BackgroundImageFix"/>
<feBlend mode="normal" in="SourceGraphic" in2="BackgroundImageFix" result="shape"/>
<feGaussianBlur stdDeviation="282" result="effect1_foregroundBlur_114_246"/>
</filter>
<clipPath id="clip0_114_246">
<rect width="2205" height="1712" fill="white"/>
</clipPath>
</defs>
</svg>
